<?xml version="1.0" encoding="UTF-8"?><!DOCTYPE svg PUBLIC "-//W3C//DTD SVG 1.1//EN" "http://www.w3.org/Graphics/SVG/1.1/DTD/svg11.dtd"><svg xmlns="http://www.w3.org/2000/svg"><symbol id="facebook_iso" viewBox="0 0 40 40"><path d="M27.8 9.1h-3.7c-1.3 0-1.6.5-1.6 1.9v3.2h5.2l-.5 5.7h-4.7v17h-6.8v-17h-3.5v-5.8h3.5V9.6c0-4.3 2.3-6.5 7.3-6.5h4.7v6h.1z"/></symbol><symbol id="instagram_iso" viewBox="0 0 40 40"><path d="M20 12.4c-4.2 0-7.6 3.4-7.6 7.6s3.4 7.6 7.6 7.6 7.6-3.4 7.6-7.6-3.4-7.6-7.6-7.6zm0 12.5c-2.7 0-4.9-2.2-4.9-4.9s2.2-4.9 4.9-4.9 4.9 2.2 4.9 4.9-2.2 4.9-4.9 4.9z"/><circle cx="27.9" cy="12.1" r="1.8"/><path d="M34.7 13.9c-.1-1.6-.3-2.6-.7-3.6-.4-1-.9-1.8-1.7-2.6-.8-.8-1.6-1.3-2.6-1.7-.9-.4-2-.6-3.6-.7-1.6-.1-2.1-.1-6.1-.1s-4.5 0-6.1.1c-1.6.1-2.6.3-3.6.7-1 .4-1.8.9-2.6 1.7-.8.8-1.3 1.7-1.7 2.6-.4.9-.6 2-.7 3.6-.1 1.6-.1 2.1-.1 6.1s0 4.5.1 6.1c.1 1.6.3 2.6.7 3.6.4 1 .9 1.8 1.7 2.6.8.8 1.6 1.3 2.6 1.7.9.4 2 .6 3.6.7 1.6.1 2.1.1 6.1.1s4.5 0 6.1-.1c1.6-.1 2.6-.3 3.6-.7 1-.4 1.8-.9 2.6-1.7.8-.8 1.3-1.6 1.7-2.6.4-.9.6-2 .7-3.6.1-1.6.1-2.1.1-6.1s0-4.5-.1-6.1zM32 26c-.1 1.4-.3 2.2-.5 2.7-.3.7-.6 1.2-1.1 1.7-.5.5-1 .8-1.7 1.1-.5.2-1.3.5-2.7.5-1.6.1-2 .1-6 .1-3.9 0-4.4 0-6-.1-1.4-.1-2.2-.3-2.7-.5-.7-.3-1.2-.6-1.7-1.1-.5-.5-.8-1-1.1-1.7-.2-.5-.5-1.3-.5-2.7-.1-1.6-.1-2-.1-6s0-4.4.1-6c.1-1.4.3-2.2.5-2.7.3-.7.6-1.2 1.1-1.7.5-.5 1-.8 1.7-1.1.5-.2 1.3-.5 2.7-.5 1.6-.1 2-.1 6-.1 3.9 0 4.4 0 6 .1 1.4.1 2.2.3 2.7.5.7.3 1.2.6 1.7 1.1.5.5.8 1 1.1 1.7.2.5.4 1.3.5 2.7.1 1.6.1 2 .1 6s0 4.4-.1 6z"/></symbol><symbol id="twitter_iso" viewBox="0 0 40 40"><path d="M31.8 13.9c.4 8.6-6 18.1-17.3 18.1-3.4 0-6.6-1-9.3-2.7 3.2.4 6.5-.5 9-2.5-2.7 0-4.9-1.8-5.7-4.2 1 .2 1.9.1 2.8-.1-2.9-.6-5-3.2-4.9-6.1.8.5 1.8.7 2.8.8-2.8-1.8-3.6-5.4-2-8.2 3 3.7 7.5 6.1 12.6 6.4-.9-3.8 2-7.5 5.9-7.5 1.8 0 3.3.7 4.4 1.9 1.4-.3 2.7-.8 3.9-1.5-.5 1.4-1.4 2.6-2.7 3.4 1.2-.1 2.4-.5 3.5-1-.8 1.3-1.8 2.4-3 3.2z"/></symbol></svg>